:SAMPLES-PER-SECOND 30
:FRAME-RANGE 1-1086
:FULLY-SPECIFIED
:DEGREES
1053
root  47.9067 38.8225 -65.102 -3.12437 22.195 -3.20419
RightUpLeg  -15.8933 -5.88295 4.86047
RightLeg  18.3024 -16.7839 -2.32251
RightFoot  -2.46887 0.181126 -2.54874
RightToes  -5.8209e-011 0 -3.6325e-017
Spine  5.38898 -2.01966 7.23126
Spine1  0.931222 -1.47869 1.89297
HEad  -8.20273 -5.72025 -1.67942
LeftShoulder1  1.59718 -0.80146 -31.0505
LeftArm  39.2896 -2.9746 -43.1037
LeftForeArm  -7.75058 -18.9778 -9.14003
LeftHand  0.386481 -3.96093 -4.53314
RightShoulder  8.23445 11.0412 49.5885
RightArm  11.0632 -0.0498849 17.238
RightForeArm  18.0357 -4.48137 17.704
RightHand  0.489717 4.34143 5.55071
LeftUpLeg  4.1779 10.1664 7.90142
LeftLeg  42.1155 -1.35586 -0.929295
LeftFoot  1.34218 1.94894 -17.4942
LeftToes  5.72949e-011 5.22586e-011 2.45399e-011
1054
root  48.2463 38.6795 -64.1176 -3.6998 23.7276 -4.51958
RightUpLeg  -15.2231 -5.677 5.58657
RightLeg  21.0591 -18.3866 -3.26834
RightFoot  -5.41867 0.0346792 -1.38006
RightToes  -5.8209e-011 0 -3.6325e-017
Spine  6.02975 -2.33011 9.94612
Spine1  0.695952 -1.12645 1.2918
HEad  -8.53483 -6.94113 -0.16813
LeftShoulder1  1.60881 -0.926773 -30.2574
LeftArm  37.7785 -0.98232 -42.6633
LeftForeArm  -4.46885 -16.8837 -11.1363
LeftHand  0.410026 -4.04718 -4.77495
RightShoulder  8.71002 11.8391 49.7192
RightArm  11.8708 0.0731146 17.4642
RightForeArm  17.882 -2.80998 17.665
RightHand  0.477748 4.57405 5.26667
LeftUpLeg  -1.98235 8.32995 9.26091
LeftLeg  51.3664 -1.20964 -1.1827
LeftFoot  7.59511 1.9996 -12.2318
LeftToes  5.72949e-011 5.22586e-011 2.45399e-011
1055
root  48.5938 38.7649 -62.9758 -3.98726 24.6665 -4.72087
RightUpLeg  -13.0082 -5.43512 5.53126
RightLeg  21.4175 -19.8965 -3.56191
RightFoot  -7.37773 -0.0139877 -1.0402
RightToes  -5.8209e-011 0 -3.6325e-017
Spine  6.33686 -2.1896 11.1983
Spine1  0.378 -0.560876 0.151973
HEad  -8.66821 -7.95397 1.08767
LeftShoulder1  1.57935 -0.892447 -29.8652
LeftArm  34.4841 0.907051 -41.4313
LeftForeArm  -1.33775 -14.4128 -13.1919
LeftHand  0.412731 -3.7411 -4.99188
RightShoulder  9.09518 12.4259 49.9999
RightArm  13.6022 0.666693 17.5213
RightForeArm  17.8158 -0.616854 17.5192
RightHand  0.458882 4.61431 5.02463
LeftUpLeg  -7.09633 7.82928 9.86788
LeftLeg  57.3627 -0.683908 -0.644548
LeftFoot  5.159 1.63507 -11.4641
LeftToes  5.72949e-011 5.22586e-011 2.45399e-011
1056
root  48.9591 38.8529 -61.8739 -3.94919 24.5882 -4.24707
RightUpLeg  -11.0616 -5.29502 5.31287
RightLeg  21.7646 -19.6313 -3.97638
RightFoot  -9.04731 -0.0542706 -0.350679
RightToes  -5.8209e-011 0 -3.6325e-017
Spine  6.7644 -1.62239 11.8451
Spine1  0.0461401 0.291027 -0.841548
HEad  -8.57494 -8.72673 1.40816
LeftShoulder1  1.54938 -0.797291 -29.9633
LeftArm  31.7683 3.1259 -39.6006
LeftForeArm  -1.51973 -12.879 -14.3849
LeftHand  0.38079 -3.0993 -4.98385
RightShoulder  9.36375 12.946 49.846
RightArm  16.9238 2.07332 17.5865
RightForeArm  16.1464 1.75438 17.3997
RightHand  0.457809 4.73007 4.94732
LeftUpLeg  -11.5703 8.51875 9.56422
LeftLeg  60.0016 -0.70617 -0.779638
LeftFoot  3.17085 1.24392 -9.90351
LeftToes  5.72949e-011 5.22586e-011 2.45399e-011
1057
root  49.3458 39.0156 -60.7332 -3.70717 24.2963 -3.29036
RightUpLeg  -8.26683 -5.77947 4.42271
RightLeg  20.6217 -18.9232 -3.44647
RightFoot  -10.4288 -0.0697775 -0.106794
RightToes  -5.8209e-011 0 -3.6325e-017
Spine  6.58802 -0.998821 11.5997
Spine1  0.229083 0.928585 -1.61709
HEad  -8.49761 -8.80432 0.856712
LeftShoulder1  1.49555 -0.594113 -30.4391
LeftArm  28.8551 5.33404 -37.3694
LeftForeArm  -2.40806 -11.5348 -15.3238
LeftHand  0.35757 -2.48103 -5.08637
RightShoulder  9.73862 13.8512 49.131
RightArm  16.8666 3.48506 17.8791
RightForeArm  16.2265 2.92095 17.0442
RightHand  0.469971 4.84153 5.02376
LeftUpLeg  -15.1029 9.22344 8.47748
LeftLeg  59.1081 -0.944376 -1.17712
LeftFoot  0.785035 1.02875 -9.71416
LeftToes  5.72949e-011 5.22586e-011 2.45399e-011
1058
root  49.7395 39.1631 -59.615 -3.41878 23.6814 -2.3002
RightUpLeg  -5.43912 -6.38235 3.44298
RightLeg  19.1441 -17.6783 -2.71553
RightFoot  -11.6522 -0.0785009 0.145598
RightToes  -5.8209e-011 0 -3.6325e-017
Spine  6.46241 -0.292096 11.306
Spine1  0.189943 1.62412 -2.61642
HEad  -8.08919 -8.59943 -0.0952467
LeftShoulder1  1.49112 -0.518647 -31.0181
LeftArm  25.2174 7.35134 -34.9633
LeftForeArm  -1.64619 -9.63634 -16.3481
LeftHand  0.35608 -1.98874 -5.44833
RightShoulder  10.0546 14.6915 48.3698
RightArm  15.2987 4.81461 18.1488
RightForeArm  16.0677 3.53492 16.7181
RightHand  0.480467 4.82194 5.15357
LeftUpLeg  -17.8389 10.3533 7.13189
LeftLeg  55.4144 -1.53038 -1.91027
LeftFoot  -1.69134 0.791374 -9.2418
LeftToes  5.72949e-011 5.22586e-011 2.45399e-011
